<svg width="139" height="22" viewBox="0 0 139 22" fill="none" xmlns="http://www.w3.org/2000/svg">
<path d="M34.119 16.8297L29.8197 11.98V16.8297H28V2H29.8197V10.7174L34.039 5.84769H36.5786L31.4194 11.3186L36.5986 16.8297H34.119Z" fill="black"/>
<path d="M37.923 11.2986C37.923 10.1764 38.1496 9.19439 38.6029 8.3527C39.0561 7.49766 39.676 6.83634 40.4626 6.36874C41.2624 5.90114 42.149 5.66733 43.1221 5.66733C44.082 5.66733 44.9152 5.87441 45.6217 6.28858C46.3283 6.70274 46.8548 7.22378 47.2014 7.8517V5.84769H49.0411V16.8297H47.2014V14.7856C46.8415 15.4269 46.3016 15.9613 45.5817 16.3888C44.8752 16.8029 44.0486 17.01 43.1021 17.01C42.129 17.01 41.2491 16.7695 40.4626 16.2886C39.676 15.8076 39.0561 15.1329 38.6029 14.2645C38.1496 13.3961 37.923 12.4075 37.923 11.2986ZM47.2014 11.3186C47.2014 10.4903 47.0348 9.76887 46.7015 9.15431C46.3683 8.53974 45.915 8.07214 45.3418 7.7515C44.7818 7.4175 44.162 7.2505 43.4821 7.2505C42.8022 7.2505 42.1823 7.41082 41.6224 7.73146C41.0625 8.0521 40.6159 8.51971 40.2826 9.13427C39.9493 9.74883 39.7827 10.4703 39.7827 11.2986C39.7827 12.1403 39.9493 12.8751 40.2826 13.503C40.6159 14.1176 41.0625 14.5919 41.6224 14.9259C42.1823 15.2465 42.8022 15.4068 43.4821 15.4068C44.162 15.4068 44.7818 15.2465 45.3418 14.9259C45.915 14.5919 46.3683 14.1176 46.7015 13.503C47.0348 12.8751 47.2014 12.147 47.2014 11.3186Z" fill="black"/>
<path d="M54.2476 7.63126C54.5675 7.00334 55.0208 6.5157 55.6073 6.16834C56.2072 5.82098 56.9338 5.64729 57.787 5.64729V7.53106H57.3071C55.2674 7.53106 54.2476 8.63995 54.2476 10.8577V16.8297H52.4279V5.84769H54.2476V7.63126Z" fill="black"/>
<path d="M69.6376 5.84769L63.0387 22H61.159L63.3187 16.7094L58.8994 5.84769H60.9191L64.3585 14.7455L67.7579 5.84769H69.6376Z" fill="black"/>
<path d="M71.0986 11.2986C71.0986 10.1764 71.3252 9.19439 71.7785 8.3527C72.2317 7.49766 72.8516 6.83634 73.6381 6.36874C74.438 5.90114 75.3245 5.66733 76.2977 5.66733C77.2575 5.66733 78.0907 5.87441 78.7973 6.28858C79.5038 6.70274 80.0304 7.22378 80.377 7.8517V5.84769H82.2167V16.8297H80.377V14.7856C80.0171 15.4269 79.4772 15.9613 78.7573 16.3888C78.0508 16.8029 77.2242 17.01 76.2777 17.01C75.3045 17.01 74.4247 16.7695 73.6381 16.2886C72.8516 15.8076 72.2317 15.1329 71.7785 14.2645C71.3252 13.3961 71.0986 12.4075 71.0986 11.2986ZM80.377 11.3186C80.377 10.4903 80.2104 9.76887 79.8771 9.15431C79.5438 8.53974 79.0906 8.07214 78.5173 7.7515C77.9574 7.4175 77.3375 7.2505 76.6576 7.2505C75.9778 7.2505 75.3579 7.41082 74.798 7.73146C74.238 8.0521 73.7915 8.51971 73.4582 9.13427C73.1249 9.74883 72.9583 10.4703 72.9583 11.2986C72.9583 12.1403 73.1249 12.8751 73.4582 13.503C73.7915 14.1176 74.238 14.5919 74.798 14.9259C75.3579 15.2465 75.9778 15.4068 76.6576 15.4068C77.3375 15.4068 77.9574 15.2465 78.5173 14.9259C79.0906 14.5919 79.5438 14.1176 79.8771 13.503C80.2104 12.8751 80.377 12.147 80.377 11.3186Z" fill="black"/>
<path d="M91.7224 16.8297L87.4232 11.98V16.8297H85.6035V2H87.4232V10.7174L91.6425 5.84769H94.182L89.0229 11.3186L94.202 16.8297H91.7224Z" fill="black"/>
<path d="M95.5264 11.2986C95.5264 10.1764 95.7531 9.19439 96.2063 8.3527C96.6596 7.49766 97.2795 6.83634 98.066 6.36874C98.8659 5.90114 99.7524 5.66733 100.726 5.66733C101.685 5.66733 102.519 5.87441 103.225 6.28858C103.932 6.70274 104.458 7.22378 104.805 7.8517V5.84769H106.645V16.8297H104.805V14.7856C104.445 15.4269 103.905 15.9613 103.185 16.3888C102.479 16.8029 101.652 17.01 100.706 17.01C99.7324 17.01 98.8526 16.7695 98.066 16.2886C97.2795 15.8076 96.6596 15.1329 96.2063 14.2645C95.7531 13.3961 95.5264 12.4075 95.5264 11.2986ZM104.805 11.3186C104.805 10.4903 104.638 9.76887 104.305 9.15431C103.972 8.53974 103.518 8.07214 102.945 7.7515C102.385 7.4175 101.765 7.2505 101.086 7.2505C100.406 7.2505 99.7857 7.41082 99.2258 7.73146C98.6659 8.0521 98.2193 8.51971 97.8861 9.13427C97.5528 9.74883 97.3861 10.4703 97.3861 11.2986C97.3861 12.1403 97.5528 12.8751 97.8861 13.503C98.2193 14.1176 98.6659 14.5919 99.2258 14.9259C99.7857 15.2465 100.406 15.4068 101.086 15.4068C101.765 15.4068 102.385 15.2465 102.945 14.9259C103.518 14.5919 103.972 14.1176 104.305 13.503C104.638 12.8751 104.805 12.147 104.805 11.3186Z" fill="black"/>
<path d="M111.851 7.63126C112.171 7.00334 112.624 6.5157 113.211 6.16834C113.811 5.82098 114.537 5.64729 115.39 5.64729V7.53106H114.911C112.871 7.53106 111.851 8.63995 111.851 10.8577V16.8297H110.031V5.84769H111.851V7.63126Z" fill="black"/>
<path d="M121.682 17.01C120.842 17.01 120.089 16.8697 119.422 16.5892C118.756 16.2953 118.229 15.8945 117.843 15.3868C117.456 14.8657 117.243 14.2712 117.203 13.6032H119.082C119.136 14.151 119.389 14.5985 119.842 14.9459C120.309 15.2933 120.915 15.4669 121.662 15.4669C122.355 15.4669 122.902 15.3133 123.302 15.006C123.702 14.6987 123.902 14.3113 123.902 13.8437C123.902 13.3627 123.688 13.0087 123.262 12.7816C122.835 12.5411 122.175 12.3073 121.282 12.0802C120.469 11.8664 119.802 11.6526 119.282 11.4389C118.776 11.2118 118.336 10.8844 117.963 10.4569C117.603 10.016 117.423 9.44155 117.423 8.73347C117.423 8.17234 117.589 7.65798 117.923 7.19038C118.256 6.72278 118.729 6.35538 119.342 6.08818C119.956 5.80761 120.656 5.66733 121.442 5.66733C122.655 5.66733 123.635 5.97462 124.382 6.58918C125.128 7.20374 125.528 8.04542 125.581 9.11423H123.762C123.722 8.53975 123.488 8.07882 123.062 7.73146C122.648 7.3841 122.089 7.21042 121.382 7.21042C120.729 7.21042 120.209 7.3507 119.822 7.63126C119.436 7.91182 119.242 8.27922 119.242 8.73347C119.242 9.09419 119.356 9.39479 119.582 9.63527C119.822 9.86239 120.116 10.0494 120.462 10.1964C120.822 10.33 121.315 10.4836 121.942 10.6573C122.728 10.8711 123.368 11.0848 123.862 11.2986C124.355 11.499 124.775 11.8063 125.121 12.2204C125.481 12.6346 125.668 13.1757 125.681 13.8437C125.681 14.4449 125.515 14.986 125.181 15.4669C124.848 15.9479 124.375 16.3287 123.762 16.6092C123.162 16.8764 122.469 17.01 121.682 17.01Z" fill="black"/>
<path d="M127.882 11.2986C127.882 10.1764 128.108 9.19439 128.562 8.3527C129.015 7.49766 129.635 6.83634 130.421 6.36874C131.221 5.90114 132.108 5.66733 133.081 5.66733C134.041 5.66733 134.874 5.87441 135.581 6.28858C136.287 6.70274 136.814 7.22378 137.16 7.8517V5.84769H139V16.8297H137.16V14.7856C136.8 15.4269 136.26 15.9613 135.541 16.3888C134.834 16.8029 134.007 17.01 133.061 17.01C132.088 17.01 131.208 16.7695 130.421 16.2886C129.635 15.8076 129.015 15.1329 128.562 14.2645C128.108 13.3961 127.882 12.4075 127.882 11.2986ZM137.16 11.3186C137.16 10.4903 136.994 9.76887 136.66 9.15431C136.327 8.53974 135.874 8.07214 135.301 7.7515C134.741 7.4175 134.121 7.2505 133.441 7.2505C132.761 7.2505 132.141 7.41082 131.581 7.73146C131.021 8.0521 130.575 8.51971 130.241 9.13427C129.908 9.74883 129.742 10.4703 129.742 11.2986C129.742 12.1403 129.908 12.8751 130.241 13.503C130.575 14.1176 131.021 14.5919 131.581 14.9259C132.141 15.2465 132.761 15.4068 133.441 15.4068C134.121 15.4068 134.741 15.2465 135.301 14.9259C135.874 14.5919 136.327 14.1176 136.66 13.503C136.994 12.8751 137.16 12.147 137.16 11.3186Z" fill="black"/>
<path d="M0 2.38041V21.4236H16.6628L0 2.38041Z" fill="white"/>
<path fill-rule="evenodd" clip-rule="evenodd" d="M0 2.38041L16.6628 21.4236H0V2.38041ZM1.1902 20.2334V5.54807L14.0399 20.2334H1.1902Z" fill="black"/>
<path d="M0 16.6628V0H16.6628L0 16.6628Z" fill="#FF5569"/>
</svg>
